# xmcd
#
# Track frame offsets: 
#        150
#        10858
#        19041
#        33041
#        47495
#        57371
#        67735
#        77890
#        90559
#
# Disc length: 1373 seconds
#
# Revision: 0
# Processed by: cddbd v1.5.1PL2 Copyright (c) Steve Scherf et al.
# Submitted via: ExactAudioCopy v0.95a5
#
DISCID=5c055b09
DTITLE=Cast King - Cast King
DYEAR=2004
DGENRE=Blues
TTITLE0=Sawmill Man
TTITLE1=Numb
TTITLE2=Low Low Blues
TTITLE3=Lonesomest Man
TTITLE4=Stonewall
TTITLE5=Long Tall Blonde
TTITLE6=Faded Rose
TTITLE7=Wino
TTITLE8=Wrong Time
EXTD=
EXTT0=
EXTT1=
EXTT2=
EXTT3=
EXTT4=
EXTT5=
EXTT6=
EXTT7=
EXTT8=
PLAYORDER=
